<?xml version="1.0" encoding="UTF-8" standalone="no"?>
<!DOCTYPE svg PUBLIC "-//W3C//DTD SVG 1.1//EN"
 "http://www.w3.org/Graphics/SVG/1.1/DTD/svg11.dtd">
<!-- Generated by graphviz version 2.43.0 (0)
 -->
<!-- Title: G Pages: 1 -->
<svg width="339pt" height="204pt"
 viewBox="0.00 0.00 339.29 204.00" xmlns="http://www.w3.org/2000/svg" xmlns:xlink="http://www.w3.org/1999/xlink">
<g id="graph0" class="graph" transform="scale(1 1) rotate(0) translate(4 200)">
<title>G</title>
<polygon fill="white" stroke="transparent" points="-4,4 -4,-200 335.29,-200 335.29,4 -4,4"/>
<g id="clust1" class="cluster">
<title>cluster_Global</title>
<path fill="none" stroke="gray" d="M20,-8C20,-8 311.29,-8 311.29,-8 317.29,-8 323.29,-14 323.29,-20 323.29,-20 323.29,-176 323.29,-176 323.29,-182 317.29,-188 311.29,-188 311.29,-188 20,-188 20,-188 14,-188 8,-182 8,-176 8,-176 8,-20 8,-20 8,-14 14,-8 20,-8"/>
<text text-anchor="middle" x="165.65" y="-175.2" font-family="Times,serif" font-size="11.00" fill="gray">Global</text>
</g>
<g id="clust2" class="cluster">
<title>cluster_Global\Joomla</title>
<path fill="none" stroke="gray" d="M28,-16C28,-16 157.29,-16 157.29,-16 163.29,-16 169.29,-22 169.29,-28 169.29,-28 169.29,-148 169.29,-148 169.29,-154 163.29,-160 157.29,-160 157.29,-160 28,-160 28,-160 22,-160 16,-154 16,-148 16,-148 16,-28 16,-28 16,-22 22,-16 28,-16"/>
<text text-anchor="middle" x="92.65" y="-147.2" font-family="Times,serif" font-size="11.00" fill="gray">Joomla</text>
</g>
<g id="clust3" class="cluster">
<title>cluster_Global\Joomla\CMS</title>
<path fill="none" stroke="gray" d="M36,-24C36,-24 149.29,-24 149.29,-24 155.29,-24 161.29,-30 161.29,-36 161.29,-36 161.29,-120 161.29,-120 161.29,-126 155.29,-132 149.29,-132 149.29,-132 36,-132 36,-132 30,-132 24,-126 24,-120 24,-120 24,-36 24,-36 24,-30 30,-24 36,-24"/>
<text text-anchor="middle" x="92.65" y="-119.2" font-family="Times,serif" font-size="11.00" fill="gray">CMS</text>
</g>
<g id="clust4" class="cluster">
<title>cluster_Global\Joomla\CMS\Plugin</title>
<path fill="none" stroke="gray" d="M44,-32C44,-32 141.29,-32 141.29,-32 147.29,-32 153.29,-38 153.29,-44 153.29,-44 153.29,-92 153.29,-92 153.29,-98 147.29,-104 141.29,-104 141.29,-104 44,-104 44,-104 38,-104 32,-98 32,-92 32,-92 32,-44 32,-44 32,-38 38,-32 44,-32"/>
<text text-anchor="middle" x="92.65" y="-91.2" font-family="Times,serif" font-size="11.00" fill="gray">Plugin</text>
</g>
<!-- CMSPlugin -->
<g id="node1" class="node">
<title>CMSPlugin</title>
<ellipse fill="none" stroke="black" cx="92.65" cy="-58" rx="52.79" ry="18"/>
<text text-anchor="middle" x="92.65" y="-54.3" font-family="Times,serif" font-size="14.00" fill="gray">CMSPlugin</text>
</g>
<!-- \\JxjHelper -->
<g id="node2" class="node">
<title>\\JxjHelper</title>
<polygon fill="none" stroke="black" points="304.79,-145 227.79,-145 227.79,-109 304.79,-109 304.79,-145"/>
<text text-anchor="middle" x="266.29" y="-124.2" font-family="Courier,monospace" font-size="11.00">JxjHelper</text>
</g>
<!-- \\PlgSystemJxj -->
<g id="node3" class="node">
<title>\\PlgSystemJxj</title>
<polygon fill="none" stroke="black" points="315.29,-76 217.29,-76 217.29,-40 315.29,-40 315.29,-76"/>
<text text-anchor="middle" x="266.29" y="-55.2" font-family="Courier,monospace" font-size="11.00">PlgSystemJxj</text>
</g>
<!-- \\PlgSystemJxj&#45;&gt;CMSPlugin -->
<g id="edge1" class="edge">
<title>\\PlgSystemJxj&#45;&gt;CMSPlugin</title>
<path fill="none" stroke="black" d="M217.02,-58C197.94,-58 175.76,-58 155.52,-58"/>
<polygon fill="none" stroke="black" points="155.45,-54.5 145.45,-58 155.45,-61.5 155.45,-54.5"/>
</g>
</g>
</svg>
